PathFileType	4	(X/Y/Z)	Patient4_TMGait_0pt2_03_right_25.trc.trc
DataRate	CameraRate	NumFrames	NumMarkers	Units	OrigDataRate	OrigDataStartFrame	OrigNumFrames
49.295774647887	49.295774647887	4	33	mm	49.295774647887	36	       141
Frame#	Time	Sacral			L.Shoulder			Chest			R.Shoulder			Neck			R.ASIS			L.ASIS			R.Thigh.Superior			R.Thigh.Lateral			R.Thigh.Inferior			R.Patella			L.Thigh.Superior			L.Thigh.Lateral			L.Thigh.Inferior			L.Patella			L.Shank.Superior			L.Shank.Lateral			L.Shank.Inferior			R.Shank.Superior			R.Shank.Lateral			R.Shank.Inferior			R.Heel			R.Midfoot.Superior			R.Midfoot.Lateral			R.Toe			L.Heel			L.Midfoot.Lateral			L.Midfoot.Superior			L.Toe			L.Elbow			L.Wrist			R.Elbow			R.Wrist			
		X1	Y1	Z1	X2	Y2	Z2	X3	Y3	Z3	X4	Y4	Z4	X5	Y5	Z5	X6	Y6	Z6	X7	Y7	Z7	X8	Y8	Z8	X9	Y9	Z9	X10	Y10	Z10	X11	Y11	Z11	X12	Y12	Z12	X13	Y13	Z13	X14	Y14	Z14	X15	Y15	Z15	X16	Y16	Z16	X17	Y17	Z17	X18	Y18	Z18	X19	Y19	Z19	X20	Y20	Z20	X21	Y21	Z21	X22	Y22	Z22	X23	Y23	Z23	X24	Y24	Z24	X25	Y25	Z25	X26	Y26	Z26	X27	Y27	Z27	X28	Y28	Z28	X29	Y29	Z29	X30	Y30	Z30	X31	Y31	Z31	X32	Y32	Z32	X33	Y33	Z33	

36	53.970000000000	927.329003582446	1010.906392866012	493.208445983073	1140.333785826941	1436.143711671649	343.075823886763	1207.348019918271	1368.092726345720	520.669548885173	1091.637411246905	1445.544412336378	672.857159634790	1089.788518298063	1499.080879130893	493.678685313209	1138.823776343250	944.669487476326	642.583443689384	1160.651728207163	964.094131412917	368.464191120143	1189.903457925556	745.150462098470	608.379144505872	1109.903121983384	633.443691159039	664.355364656532	1190.609066047336	583.735884982597	585.667601540251	1194.339932201872	497.556731337751	591.045514533981	1163.532966449861	734.929133147258	382.187664506287	1047.402256541352	632.232916438329	300.210855202875	1122.731162076559	544.380709512853	361.173054217982	1111.084906838045	473.281463170897	361.540173553977	1066.980161858483	411.346462079223	347.944403375408	953.670477242282	324.985685066527	287.555493974114	978.729116259130	197.657087437648	344.795285743992	1168.335439745684	407.701786530827	599.564067173729	1100.753574807655	304.088853552200	666.272432566665	1142.059439931110	208.358665640607	602.566466677542	1009.538450911905	43.503287798203	582.923280739915	1181.833652656835	97.521287275662	609.236127970694	1097.033695417845	37.157703802166	652.202273338386	1303.967439539908	47.183227650806	630.004445982159	822.881321021494	61.469589595995	374.607220300423	896.502516118629	49.000050042081	295.320121852412	986.368639016339	100.946702023786	321.708849703466	1107.076458296524	37.981617570805	292.018656894919	1254.778209681721	1127.990022897019	190.137292867883	1507.144098368187	1161.008084938338	226.156613634274	965.657830156060	1121.908631074376	783.179244489744	1044.941005733832	873.415774922759	799.433963702800	
37	53.990285714286	928.112830382664	1011.582326578532	500.006057167299	1139.416509161943	1436.310571981522	346.671379052706	1208.668787436177	1368.441468613782	523.474206631183	1095.083617538422	1446.119598461170	677.080412142451	1090.966696493779	1499.592246104518	497.710978962322	1141.236934244965	944.991535248442	646.781636765011	1159.897127731708	964.509938360002	372.312122103889	1190.135305133630	744.635171385599	611.790220893194	1109.356769367404	633.373195222840	667.868180385314	1189.102847724245	583.216458305078	588.514368824366	1192.166676028751	497.016841921273	593.418835135729	1164.588008899941	736.012207166173	384.836619450945	1048.628054912140	632.874060545175	303.392185487262	1126.248926680789	545.034584667344	362.423486351075	1115.322738534627	473.149911353597	361.881033620753	1069.506672894755	411.754719379870	348.681500610643	954.132522479780	327.678229448262	288.892448416354	978.018026402683	199.431201323559	344.576232224775	1165.768663823468	407.418604572213	601.491393680587	1097.950126372339	303.708774124614	667.725619856108	1138.689793722602	208.192927491861	603.292856883864	1005.601542693296	43.489371170360	582.989030409096	1177.895554450217	97.441936537540	609.357642734988	1093.087771168148	37.128336448360	652.241703892625	1300.025377383612	47.009697192692	630.107814404397	820.016020130094	65.816661102029	374.349068278173	893.315066275402	51.282849823774	295.152047344135	984.257502119441	101.627028041101	321.051084768485	1103.395701485267	37.672370976999	291.964029369887	1245.870850978480	1122.901581038662	196.204527198862	1500.386553580870	1139.616973282607	230.896528053949	974.573931260080	1122.074447799397	793.001905010471	1061.996062939297	876.506213425763	809.895526963187	
38	54.010571428571	928.704359949083	1012.121336108150	506.721505669296	1138.211041560191	1436.383891222366	350.210567251626	1209.839006418709	1368.604245623774	526.105328918905	1098.589424194209	1446.492999336135	681.249068783285	1092.032048923106	1499.969362822543	501.751914736518	1143.532756058871	945.153577472733	650.709830492617	1158.855323791998	964.861350862358	375.936662842073	1190.333927064983	744.055964651737	614.920639711745	1108.944286635240	633.211143315971	671.175657189756	1187.732848732548	582.675204096519	591.153041855860	1190.195432108010	496.404204433670	595.678482097194	1166.074849797504	737.220117981557	387.362045540741	1050.800197819759	633.251911157654	306.384758623380	1130.960101471363	545.713233493619	363.569508191263	1120.819842833127	472.911436634594	362.002908756382	1073.150906556683	412.028552223413	349.235215532593	955.599838378397	330.514294735442	290.112802042150	977.957753430142	201.356668836049	344.217592695182	1163.345460153669	407.064453602991	603.309722785471	1095.222375155197	303.303466942892	669.063491540231	1135.348037148370	207.983186234798	603.960198955617	1001.604811054500	43.495591849642	583.029364496843	1173.906103547188	97.337367590835	609.449169101422	1089.081184739979	37.107234002576	652.265578852635	1296.025527354716	46.799272679080	630.192294400890	817.525582890880	70.903372634754	373.998409262719	890.344366191868	53.987111781365	294.913647983440	982.499822621235	102.388321214483	320.261916077763	1099.682533899369	37.422473578379	291.924241698088	1236.001902978233	1117.764562081225	202.238343659755	1491.514803717796	1115.752819022325	235.413145332923	984.172923285621	1121.959880105256	802.730187276472	1079.367147376719	879.462899390692	820.030393800075	
39	54.030857142857	929.106830743920	1012.472417456317	513.360465824782	1136.714044128102	1436.329749795458	353.698061167411	1210.834205402062	1368.558078243676	528.571445563761	1102.098704897846	1446.630082370417	685.346225778355	1092.962182909912	1500.175443107364	505.796561606258	1145.715527810607	945.148380013191	654.383391311078	1157.545397069149	965.126242915809	379.361023235016	1190.605825418698	743.440209250695	617.775376393330	1108.833649549532	632.933721113910	674.261721825441	1186.692186936863	582.119338799728	593.565794307209	1188.663050128258	495.689142889437	597.798675465944	1168.029961314866	738.575392631147	389.807753290372	1054.010938974353	633.392408694159	309.187018776397	1136.932289029832	546.469635089454	364.655079279520	1127.643703251787	472.622842047422	361.949392225782	1078.009489031889	412.207430255613	349.625652010033	958.189833350001	333.554816571125	291.223955934838	978.639905790888	203.507488926957	343.734996007674	1161.241716645901	406.608390183835	604.988500076684	1092.721953437422	302.869280947630	670.275022040252	1132.116765609390	207.710332936727	604.548435756837	997.559572412209	43.526535757472	583.051010807872	1169.882033090426	97.219292638141	609.513632237002	1085.026963126281	37.099954487429	652.277965170726	1291.984116305636	46.556438725996	630.261666814825	815.523968567384	76.918178206512	373.574717892836	887.655772533498	57.278703187483	294.622780036425	981.156688381397	103.296235204755	319.362743698826	1095.918607389028	37.182292843759	291.901286351893	1225.293389773354	1112.626007195523	208.270398733773	1480.123123439291	1089.643158648339	239.650285513705	994.469129400777	1121.475220762596	812.231960845395	1097.099277260606	882.182111846764	829.757320769854	
